{
  "accessors": [
    {
      "bufferView": 2,
      "componentType": 5126,
      "count": 65532,
      "max": [
        0.8365268111228943,
        -1.0106970071792603,
        -0.953110933303833
      ],
      "min": [
        0.2072436809539795,
        -1.595956802368164,
        -1.2528108358383179
      ],
      "type": "VEC3"
    },
    {
      "bufferView": 2,
      "byteOffset": 786384,
      "componentType": 5126,
      "count": 65532,
      "type": "VEC3"
    },
    {
      "bufferView": 1,
      "componentType": 5126,
      "count": 65532,
      "type": "VEC2"
    },
    {
      "bufferView": 0,
      "componentType": 5125,
      "count": 65532,
      "type": "SCALAR"
    },
    {
      "bufferView": 2,
      "byteOffset": 1572768,
      "componentType": 5126,
      "count": 65532,
      "max": [
        0.5041727423667908,
        -1.0079879760742188,
        -0.9534480571746826
      ],
      "min": [
        0.20583978295326233,
        -1.5424779653549194,
        -1.249392032623291
      ],
      "type": "VEC3"
    },
    {
      "bufferView": 2,
      "byteOffset": 2359152,
      "componentType": 5126,
      "count": 65532,
      "type": "VEC3"
    },
    {
      "bufferView": 1,
      "byteOffset": 524256,
      "componentType": 5126,
      "count": 65532,
      "type": "VEC2"
    },
    {
      "bufferView": 0,
      "byteOffset": 262128,
      "componentType": 5125,
      "count": 65532,
      "type": "SCALAR"
    },
    {
      "bufferView": 2,
      "byteOffset": 3145536,
      "componentType": 5126,
      "count": 65532,
      "max": [
        0.8376318216323853,
        -1.025514006614685,
        -0.9534479975700378
      ],
      "min": [
        -0.0031840000301599503,
        -1.565675973892212,
        -1.249392032623291
      ],
      "type": "VEC3"
    },
    {
      "bufferView": 2,
      "byteOffset": 3931920,
      "componentType": 5126,
      "count": 65532,
      "type": "VEC3"
    },
    {
      "bufferView": 1,
      "byteOffset": 1048512,
      "componentType": 5126,
      "count": 65532,
      "type": "VEC2"
    },
    {
      "bufferView": 0,
      "byteOffset": 524256,
      "componentType": 5125,
      "count": 65532,
      "type": "SCALAR"
    },
    {
      "bufferView": 2,
      "byteOffset": 4718304,
      "componentType": 5126,
      "count": 65532,
      "max": [
        0.28230100870132446,
        -1.0023159980773926,
        -0.9538229703903198
      ],
      "min": [
        -0.3568060100078583,
        -1.5820339918136597,
        -1.238186001777649
      ],
      "type": "VEC3"
    },
    {
      "bufferView": 2,
      "byteOffset": 5504688,
      "componentType": 5126,
      "count": 65532,
      "type": "VEC3"
    },
    {
      "bufferView": 1,
      "byteOffset": 1572768,
      "componentType": 5126,
      "count": 65532,
      "type": "VEC2"
    },
    {
      "bufferView": 0,
      "byteOffset": 786384,
      "componentType": 5125,
      "count": 65532,
      "type": "SCALAR"
    },
    {
      "bufferView": 2,
      "byteOffset": 6291072,
      "componentType": 5126,
      "count": 65532,
      "max": [
        0.2839620113372803,
        -0.9720349907875061,
        -0.9531109929084778
      ],
      "min": [
        -0.34642601013183594,
        -1.5572949647903442,
        -1.2462610006332397
      ],
      "type": "VEC3"
    },
    {
      "bufferView": 2,
      "byteOffset": 7077456,
      "componentType": 5126,
      "count": 65532,
      "type": "VEC3"
    },
    {
      "bufferView": 1,
      "byteOffset": 2097024,
      "componentType": 5126,
      "count": 65532,
      "type": "VEC2"
    },
    {
      "bufferView": 0,
      "byteOffset": 1048512,
      "componentType": 5125,
      "count": 65532,
      "type": "SCALAR"
    },
    {
      "bufferView": 2,
      "byteOffset": 7863840,
      "componentType": 5126,
      "count": 65532,
      "max": [
        0.8480117917060852,
        -0.9859579801559448,
        -0.9538230299949646
      ],
      "min": [
        -0.34203600883483887,
        -1.432457685470581,
        -1.2528109550476074
      ],
      "type": "VEC3"
    },
    {
      "bufferView": 2,
      "byteOffset": 8650224,
      "componentType": 5126,
      "count": 65532,
      "type": "VEC3"
    },
    {
      "bufferView": 1,
      "byteOffset": 2621280,
      "componentType": 5126,
      "count": 65532,
      "type": "VEC2"
    },
    {
      "bufferView": 0,
      "byteOffset": 1310640,
      "componentType": 5125,
      "count": 65532,
      "type": "SCALAR"
    },
    {
      "bufferView": 2,
      "byteOffset": 9436608,
      "componentType": 5126,
      "count": 13512,
      "max": [
        0.8478337526321411,
        -1.0398448705673218,
        -0.9654930830001831
      ],
      "min": [
        0.5377157330513,
        -1.4250876903533936,
        -1.2381858825683594
      ],
      "type": "VEC3"
    },
    {
      "bufferView": 2,
      "byteOffset": 9598752,
      "componentType": 5126,
      "count": 13512,
      "type": "VEC3"
    },
    {
      "bufferView": 1,
      "byteOffset": 3145536,
      "componentType": 5126,
      "count": 13512,
      "type": "VEC2"
    },
    {
      "bufferView": 0,
      "byteOffset": 1572768,
      "componentType": 5125,
      "count": 13512,
      "type": "SCALAR"
    },
    {
      "bufferView": 2,
      "byteOffset": 9760896,
      "componentType": 5126,
      "count": 65532,
      "max": [
        0.2839620113372803,
        -0.9720349907875061,
        -0.9531109929084778
      ],
      "min": [
        -0.34532099962234497,
        -1.5572949647903442,
        -1.2528109550476074
      ],
      "type": "VEC3"
    },
    {
      "bufferView": 2,
      "byteOffset": 10547280,
      "componentType": 5126,
      "count": 65532,
      "type": "VEC3"
    },
    {
      "bufferView": 1,
      "byteOffset": 3253632,
      "componentType": 5126,
      "count": 65532,
      "type": "VEC2"
    },
    {
      "bufferView": 0,
      "byteOffset": 1626816,
      "componentType": 5125,
      "count": 65532,
      "type": "SCALAR"
    },
    {
      "bufferView": 2,
      "byteOffset": 11333664,
      "componentType": 5126,
      "count": 65532,
      "max": [
        0.28230100870132446,
        -1.011631965637207,
        -0.9537699818611145
      ],
      "min": [
        -0.35662800073623657,
        -1.5820339918136597,
        -1.2462610006332397
      ],
      "type": "VEC3"
    },
    {
      "bufferView": 2,
      "byteOffset": 12120048,
      "componentType": 5126,
      "count": 65532,
      "type": "VEC3"
    },
    {
      "bufferView": 1,
      "byteOffset": 3777888,
      "componentType": 5126,
      "count": 65532,
      "type": "VEC2"
    },
    {
      "bufferView": 0,
      "byteOffset": 1888944,
      "componentType": 5125,
      "count": 65532,
      "type": "SCALAR"
    },
    {
      "bufferView": 2,
      "byteOffset": 12906432,
      "componentType": 5126,
      "count": 65532,
      "max": [
        0.2853659987449646,
        -1.0023159980773926,
        -0.9534479975700378
      ],
      "min": [
        -0.3568060100078583,
        -1.5603309869766235,
        -1.241036057472229
      ],
      "type": "VEC3"
    },
    {
      "bufferView": 2,
      "byteOffset": 13692816,
      "componentType": 5126,
      "count": 65532,
      "type": "VEC3"
    },
    {
      "bufferView": 1,
      "byteOffset": 4302144,
      "componentType": 5126,
      "count": 65532,
      "type": "VEC2"
    },
    {
      "bufferView": 0,
      "byteOffset": 2151072,
      "componentType": 5125,
      "count": 65532,
      "type": "SCALAR"
    },
    {
      "bufferView": 2,
      "byteOffset": 14479200,
      "componentType": 5126,
      "count": 6756,
      "max": [
        0.28270798921585083,
        -1.2379059791564941,
        -1.1251469850540161
      ],
      "min": [
        0.025770999491214752,
        -1.3887579441070557,
        -1.249392032623291
      ],
      "type": "VEC3"
    },
    {
      "bufferView": 2,
      "byteOffset": 14560272,
      "componentType": 5126,
      "count": 6756,
      "type": "VEC3"
    },
    {
      "bufferView": 1,
      "byteOffset": 4826400,
      "componentType": 5126,
      "count": 6756,
      "type": "VEC2"
    },
    {
      "bufferView": 0,
      "byteOffset": 2413200,
      "componentType": 5125,
      "count": 6756,
      "type": "SCALAR"
    },
    {
      "bufferView": 2,
      "byteOffset": 14641344,
      "componentType": 5126,
      "count": 11454,
      "max": [
        0.17528867721557617,
        0.0068910326808691025,
        -0.10164039582014084
      ],
      "min": [
        0.01744023896753788,
        0.0,
        -0.20765554904937744
      ],
      "type": "VEC3"
    },
    {
      "bufferView": 2,
      "byteOffset": 14778792,
      "componentType": 5126,
      "count": 11454,
      "type": "VEC3"
    },
    {
      "bufferView": 3,
      "componentType": 5126,
      "count": 11454,
      "type": "VEC4"
    },
    {
      "bufferView": 1,
      "byteOffset": 4880448,
      "componentType": 5126,
      "count": 11454,
      "type": "VEC2"
    },
    {
      "bufferView": 1,
      "byteOffset": 4972080,
      "componentType": 5126,
      "count": 11454,
      "type": "VEC2"
    },
    {
      "bufferView": 1,
      "byteOffset": 5063712,
      "componentType": 5126,
      "count": 11454,
      "type": "VEC2"
    },
    {
      "bufferView": 1,
      "byteOffset": 5155344,
      "componentType": 5126,
      "count": 11454,
      "type": "VEC2"
    },
    {
      "bufferView": 1,
      "byteOffset": 5246976,
      "componentType": 5126,
      "count": 11454,
      "type": "VEC2"
    },
    {
      "bufferView": 0,
      "byteOffset": 2440224,
      "componentType": 5125,
      "count": 58422,
      "type": "SCALAR"
    }
  ],
  "asset": {
    "generator": "fab-model-conversion",
    "version": "2.0"
  },
  "bufferViews": [
    {
      "buffer": 0,
      "byteLength": 2673912,
      "target": 34963
    },
    {
      "buffer": 0,
      "byteLength": 5338608,
      "byteOffset": 2673912,
      "byteStride": 8,
      "target": 34962
    },
    {
      "buffer": 0,
      "byteLength": 14916240,
      "byteOffset": 8012520,
      "byteStride": 12,
      "target": 34962
    },
    {
      "buffer": 0,
      "byteLength": 183264,
      "byteOffset": 22928760,
      "byteStride": 16,
      "target": 34962
    }
  ],
  "buffers": [
    {
      "byteLength": 23112024,
      "uri": "scene.bin"
    }
  ],
  "extensionsUsed": [
    "KHR_materials_specular"
  ],
  "images": [
    {
      "uri": "textures/3DModel.001_baseColor.jpeg"
    },
    {
      "uri": "textures/Fine_wood_baseColor.jpeg"
    },
    {
      "uri": "textures/Fine_wood_metallicRoughness.png"
    },
    {
      "uri": "textures/Fine_wood_normal.jpeg"
    }
  ],
  "materials": [
    {
      "doubleSided": true,
      "name": "3DModel.001",
      "pbrMetallicRoughness": {
        "baseColorTexture": {
          "index": 0
        },
        "metallicFactor": 0.0
      }
    },
    {
      "doubleSided": true,
      "extensions": {
        "KHR_materials_specular": {
          "specularColorFactor": [
            1.0,
            1.0,
            1.0
          ],
          "specularFactor": 0.45478605282210716
        }
      },
      "name": "Fine_wood",
      "normalTexture": {
        "index": 3,
        "texCoord": 2
      },
      "pbrMetallicRoughness": {
        "baseColorFactor": [
          0.8624203744151664,
          0.8624203744151664,
          0.8624203744151664,
          1.0
        ],
        "baseColorTexture": {
          "index": 1
        },
        "metallicFactor": 0.0,
        "metallicRoughnessTexture": {
          "index": 2,
          "texCoord": 1
        }
      }
    }
  ],
  "meshes": [
    {
      "name": "Object_0",
      "primitives": [
        {
          "attributes": {
            "NORMAL": 1,
            "POSITION": 0,
            "TEXCOORD_0": 2
          },
          "indices": 3,
          "material": 0,
          "mode": 4
        }
      ]
    },
    {
      "name": "Object_1",
      "primitives": [
        {
          "attributes": {
            "NORMAL": 5,
            "POSITION": 4,
            "TEXCOORD_0": 6
          },
          "indices": 7,
          "material": 0,
          "mode": 4
        }
      ]
    },
    {
      "name": "Object_2",
      "primitives": [
        {
          "attributes": {
            "NORMAL": 9,
            "POSITION": 8,
            "TEXCOORD_0": 10
          },
          "indices": 11,
          "material": 0,
          "mode": 4
        }
      ]
    },
    {
      "name": "Object_3",
      "primitives": [
        {
          "attributes": {
            "NORMAL": 13,
            "POSITION": 12,
            "TEXCOORD_0": 14
          },
          "indices": 15,
          "material": 0,
          "mode": 4
        }
      ]
    },
    {
      "name": "Object_4",
      "primitives": [
        {
          "attributes": {
            "NORMAL": 17,
            "POSITION": 16,
            "TEXCOORD_0": 18
          },
          "indices": 19,
          "material": 0,
          "mode": 4
        }
      ]
    },
    {
      "name": "Object_5",
      "primitives": [
        {
          "attributes": {
            "NORMAL": 21,
            "POSITION": 20,
            "TEXCOORD_0": 22
          },
          "indices": 23,
          "material": 0,
          "mode": 4
        }
      ]
    },
    {
      "name": "Object_6",
      "primitives": [
        {
          "attributes": {
            "NORMAL": 25,
            "POSITION": 24,
            "TEXCOORD_0": 26
          },
          "indices": 27,
          "material": 0,
          "mode": 4
        }
      ]
    },
    {
      "name": "Object_7",
      "primitives": [
        {
          "attributes": {
            "NORMAL": 29,
            "POSITION": 28,
            "TEXCOORD_0": 30
          },
          "indices": 31,
          "material": 0,
          "mode": 4
        }
      ]
    },
    {
      "name": "Object_8",
      "primitives": [
        {
          "attributes": {
            "NORMAL": 33,
            "POSITION": 32,
            "TEXCOORD_0": 34
          },
          "indices": 35,
          "material": 0,
          "mode": 4
        }
      ]
    },
    {
      "name": "Object_9",
      "primitives": [
        {
          "attributes": {
            "NORMAL": 37,
            "POSITION": 36,
            "TEXCOORD_0": 38
          },
          "indices": 39,
          "material": 0,
          "mode": 4
        }
      ]
    },
    {
      "name": "Object_10",
      "primitives": [
        {
          "attributes": {
            "NORMAL": 41,
            "POSITION": 40,
            "TEXCOORD_0": 42
          },
          "indices": 43,
          "material": 0,
          "mode": 4
        }
      ]
    },
    {
      "name": "Object_11",
      "primitives": [
        {
          "attributes": {
            "NORMAL": 45,
            "POSITION": 44,
            "TANGENT": 46,
            "TEXCOORD_0": 47,
            "TEXCOORD_1": 48,
            "TEXCOORD_2": 49,
            "TEXCOORD_3": 50,
            "TEXCOORD_4": 51
          },
          "indices": 52,
          "material": 1,
          "mode": 4
        }
      ]
    }
  ],
  "nodes": [
    {
      "children": [
        1
      ],
      "matrix": [
        1.0,
        0.0,
        0.0,
        0.0,
        0.0,
        2.220446049250313e-16,
        -1.0,
        0.0,
        0.0,
        1.0,
        2.220446049250313e-16,
        0.0,
        0.0,
        0.0,
        0.0,
        1.0
      ],
      "name": "Sketchfab_model"
    },
    {
      "children": [
        2
      ],
      "name": "root"
    },
    {
      "children": [
        3,
        11,
        16
      ],
      "matrix": [
        1.0,
        0.0,
        0.0,
        0.0,
        0.0,
        2.220446049250313e-16,
        1.0,
        0.0,
        0.0,
        -1.0,
        2.220446049250313e-16,
        0.0,
        0.0,
        0.0,
        0.0,
        1.0
      ],
      "name": "GLTF_SceneRootNode"
    },
    {
      "children": [
        4,
        5,
        6,
        7,
        8,
        9,
        10
      ],
      "matrix": [
        -0.724700715364996,
        7.864809192792421e-09,
        -0.6890637656628469,
        0.0,
        0.6890637656628433,
        -9.391447663986696e-08,
        -0.7247007153649934,
        0.0,
        -7.041269584062704e-08,
        -0.9999999999999956,
        6.264053342697196e-08,
        0.0,
        1.2828141450881958,
        0.0,
        -0.7146466374397278,
        1.0
      ],
      "name": "3DModel.001_1"
    },
    {
      "mesh": 0,
      "name": "Object_4"
    },
    {
      "mesh": 1,
      "name": "Object_5"
    },
    {
      "mesh": 2,
      "name": "Object_6"
    },
    {
      "mesh": 3,
      "name": "Object_7"
    },
    {
      "mesh": 4,
      "name": "Object_8"
    },
    {
      "mesh": 5,
      "name": "Object_9"
    },
    {
      "mesh": 6,
      "name": "Object_10"
    },
    {
      "children": [
        12,
        13,
        14,
        15
      ],
      "matrix": [
        0.8528673214179733,
        -5.159211724503621e-09,
        0.5221276970792982,
        0.0,
        -0.5221276970792911,
        -1.7369930582766813e-07,
        0.85286732141796,
        0.0,
        8.629309544705421e-08,
        -0.9999999999999848,
        -1.5083622906253424e-07,
        0.0,
        -0.38335999846458435,
        0.0,
        0.29002654552459717,
        1.0
      ],
      "name": "3DModel.002_2"
    },
    {
      "mesh": 7,
      "name": "Object_12"
    },
    {
      "mesh": 8,
      "name": "Object_13"
    },
    {
      "mesh": 9,
      "name": "Object_14"
    },
    {
      "mesh": 10,
      "name": "Object_15"
    },
    {
      "children": [
        17
      ],
      "matrix": [
        0.0,
        0.0,
        -12.098503112792969,
        0.0,
        0.0,
        12.098503112792969,
        0.0,
        0.0,
        12.098503112792969,
        0.0,
        0.0,
        0.0,
        2.1164774894714355,
        0.8728073239326477,
        0.8291498422622681,
        1.0
      ],
      "name": "Curve_3"
    },
    {
      "mesh": 11,
      "name": "Object_17"
    }
  ],
  "samplers": [
    {
      "magFilter": 9729,
      "minFilter": 9987,
      "wrapS": 10497,
      "wrapT": 10497
    }
  ],
  "scene": 0,
  "scenes": [
    {
      "name": "Sketchfab_Scene",
      "nodes": [
        0
      ]
    }
  ],
  "textures": [
    {
      "sampler": 0,
      "source": 0
    },
    {
      "sampler": 0,
      "source": 1
    },
    {
      "sampler": 0,
      "source": 2
    },
    {
      "sampler": 0,
      "source": 3
    }
  ]
}
