{
  "accessors": [
    {
      "bufferView": 2,
      "componentType": 5126,
      "count": 47583,
      "max": [
        2639.6611328125,
        1707.5064697265625,
        1566.721923828125
      ],
      "min": [
        -2702.8251953125,
        525.3201904296875,
        -1664.8729248046875
      ],
      "type": "VEC3"
    },
    {
      "bufferView": 2,
      "byteOffset": 570996,
      "componentType": 5126,
      "count": 47583,
      "type": "VEC3"
    },
    {
      "bufferView": 3,
      "componentType": 5126,
      "count": 47583,
      "type": "VEC4"
    },
    {
      "bufferView": 1,
      "componentType": 5126,
      "count": 47583,
      "type": "VEC2"
    },
    {
      "bufferView": 1,
      "byteOffset": 380664,
      "componentType": 5126,
      "count": 47583,
      "type": "VEC2"
    },
    {
      "bufferView": 1,
      "byteOffset": 761328,
      "componentType": 5126,
      "count": 47583,
      "type": "VEC2"
    },
    {
      "bufferView": 0,
      "componentType": 5125,
      "count": 228579,
      "type": "SCALAR"
    },
    {
      "bufferView": 2,
      "byteOffset": 1141992,
      "componentType": 5126,
      "count": 65532,
      "max": [
        2613.045654296875,
        1586.56201171875,
        1780.1514892578125
      ],
      "min": [
        -3058.85400390625,
        -6.114456653594971,
        -1821.5404052734375
      ],
      "type": "VEC3"
    },
    {
      "bufferView": 2,
      "byteOffset": 1928376,
      "componentType": 5126,
      "count": 65532,
      "type": "VEC3"
    },
    {
      "bufferView": 3,
      "byteOffset": 761328,
      "componentType": 5126,
      "count": 65532,
      "type": "VEC4"
    },
    {
      "bufferView": 1,
      "byteOffset": 1141992,
      "componentType": 5126,
      "count": 65532,
      "type": "VEC2"
    },
    {
      "bufferView": 1,
      "byteOffset": 1666248,
      "componentType": 5126,
      "count": 65532,
      "type": "VEC2"
    },
    {
      "bufferView": 1,
      "byteOffset": 2190504,
      "componentType": 5126,
      "count": 65532,
      "type": "VEC2"
    },
    {
      "bufferView": 0,
      "byteOffset": 914316,
      "componentType": 5125,
      "count": 381582,
      "type": "SCALAR"
    },
    {
      "bufferView": 2,
      "byteOffset": 2714760,
      "componentType": 5126,
      "count": 21214,
      "max": [
        2945.887451171875,
        1602.614013671875,
        1740.5426025390625
      ],
      "min": [
        -3056.833740234375,
        59.58824157714844,
        -1764.2991943359375
      ],
      "type": "VEC3"
    },
    {
      "bufferView": 2,
      "byteOffset": 2969328,
      "componentType": 5126,
      "count": 21214,
      "type": "VEC3"
    },
    {
      "bufferView": 3,
      "byteOffset": 1809840,
      "componentType": 5126,
      "count": 21214,
      "type": "VEC4"
    },
    {
      "bufferView": 1,
      "byteOffset": 2714760,
      "componentType": 5126,
      "count": 21214,
      "type": "VEC2"
    },
    {
      "bufferView": 1,
      "byteOffset": 2884472,
      "componentType": 5126,
      "count": 21214,
      "type": "VEC2"
    },
    {
      "bufferView": 1,
      "byteOffset": 3054184,
      "componentType": 5126,
      "count": 21214,
      "type": "VEC2"
    },
    {
      "bufferView": 0,
      "byteOffset": 2440644,
      "componentType": 5125,
      "count": 119922,
      "type": "SCALAR"
    }
  ],
  "asset": {
    "generator": "fab-model-conversion",
    "version": "2.0"
  },
  "bufferViews": [
    {
      "buffer": 0,
      "byteLength": 2920332,
      "target": 34963
    },
    {
      "buffer": 0,
      "byteLength": 3223896,
      "byteOffset": 2920332,
      "byteStride": 8,
      "target": 34962
    },
    {
      "buffer": 0,
      "byteLength": 3223896,
      "byteOffset": 6144228,
      "byteStride": 12,
      "target": 34962
    },
    {
      "buffer": 0,
      "byteLength": 2149264,
      "byteOffset": 9368124,
      "byteStride": 16,
      "target": 34962
    }
  ],
  "buffers": [
    {
      "byteLength": 11517388,
      "uri": "scene.bin"
    }
  ],
  "images": [
    {
      "uri": "textures/nasilemak_baseColor.png"
    },
    {
      "uri": "textures/nasilemak_metallicRoughness.png"
    },
    {
      "uri": "textures/nasilemak_normal.png"
    },
    {
      "uri": "textures/material_metallicRoughness.png"
    },
    {
      "uri": "textures/material_normal.png"
    }
  ],
  "materials": [
    {
      "doubleSided": true,
      "name": "nasilemak",
      "normalTexture": {
        "index": 2
      },
      "pbrMetallicRoughness": {
        "baseColorTexture": {
          "index": 0
        },
        "metallicFactor": 0.0,
        "metallicRoughnessTexture": {
          "index": 1
        }
      }
    },
    {
      "doubleSided": true,
      "name": "material",
      "normalTexture": {
        "index": 4
      },
      "pbrMetallicRoughness": {
        "baseColorFactor": [
          0.6751395395437068,
          0.5188337694519297,
          0.41091658375595785,
          1.0
        ],
        "metallicFactor": 0.0,
        "metallicRoughnessTexture": {
          "index": 3
        }
      }
    }
  ],
  "meshes": [
    {
      "name": "nasilemak_nasilemak_0",
      "primitives": [
        {
          "attributes": {
            "NORMAL": 1,
            "POSITION": 0,
            "TANGENT": 2,
            "TEXCOORD_0": 3,
            "TEXCOORD_1": 4,
            "TEXCOORD_2": 5
          },
          "indices": 6,
          "material": 0,
          "mode": 4
        }
      ]
    },
    {
      "name": "box_box_0",
      "primitives": [
        {
          "attributes": {
            "NORMAL": 8,
            "POSITION": 7,
            "TANGENT": 9,
            "TEXCOORD_0": 10,
            "TEXCOORD_1": 11,
            "TEXCOORD_2": 12
          },
          "indices": 13,
          "material": 1,
          "mode": 4
        }
      ]
    },
    {
      "name": "box_box_0",
      "primitives": [
        {
          "attributes": {
            "NORMAL": 15,
            "POSITION": 14,
            "TANGENT": 16,
            "TEXCOORD_0": 17,
            "TEXCOORD_1": 18,
            "TEXCOORD_2": 19
          },
          "indices": 20,
          "material": 1,
          "mode": 4
        }
      ]
    }
  ],
  "nodes": [
    {
      "children": [
        1
      ],
      "matrix": [
        1.0,
        0.0,
        0.0,
        0.0,
        0.0,
        2.220446049250313e-16,
        -1.0,
        0.0,
        0.0,
        1.0,
        2.220446049250313e-16,
        0.0,
        0.0,
        0.0,
        0.0,
        1.0
      ],
      "name": "Sketchfab_model"
    },
    {
      "children": [
        2
      ],
      "matrix": [
        0.009999999776482582,
        0.0,
        0.0,
        0.0,
        0.0,
        0.0,
        0.009999999776482582,
        0.0,
        0.0,
        -0.009999999776482582,
        0.0,
        0.0,
        0.0,
        0.0,
        0.0,
        1.0
      ],
      "name": "36f5374e2c9543d5b24c413696b8e01c.fbx"
    },
    {
      "children": [
        3,
        5
      ],
      "name": "RootNode"
    },
    {
      "children": [
        4
      ],
      "matrix": [
        1.0,
        0.0,
        0.0,
        0.0,
        0.0,
        1.0,
        0.0,
        0.0,
        0.0,
        0.0,
        1.0,
        0.0,
        0.0,
        42.55975341796875,
        0.0,
        1.0
      ],
      "name": "nasilemak"
    },
    {
      "mesh": 0,
      "name": "nasilemak_nasilemak_0"
    },
    {
      "children": [
        6,
        7
      ],
      "matrix": [
        1.0,
        0.0,
        0.0,
        0.0,
        0.0,
        1.0,
        0.0,
        0.0,
        0.0,
        0.0,
        1.0,
        0.0,
        0.0,
        42.55975341796875,
        0.0,
        1.0
      ],
      "name": "box"
    },
    {
      "mesh": 1,
      "name": "box_box_0"
    },
    {
      "mesh": 2,
      "name": "box_box_0"
    }
  ],
  "samplers": [
    {
      "magFilter": 9729,
      "minFilter": 9987,
      "wrapS": 10497,
      "wrapT": 10497
    }
  ],
  "scene": 0,
  "scenes": [
    {
      "name": "Sketchfab_Scene",
      "nodes": [
        0
      ]
    }
  ],
  "textures": [
    {
      "sampler": 0,
      "source": 0
    },
    {
      "sampler": 0,
      "source": 1
    },
    {
      "sampler": 0,
      "source": 2
    },
    {
      "sampler": 0,
      "source": 3
    },
    {
      "sampler": 0,
      "source": 4
    }
  ]
}
